<mxfile host="Electron" modified="2024-02-10T18:33:02.467Z" agent="Mozilla/5.0 (Windows NT 10.0; Win64; x64) AppleWebKit/537.36 (KHTML, like Gecko) draw.io/23.0.2 Chrome/120.0.6099.109 Electron/28.1.0 Safari/537.36" etag="yZqo8Y4yH_x_8uMs-aYM" version="23.0.2" type="device">
  <diagram name="Страница — 1" id="lwFxoNZVOsWcV77fsAZV">
    <mxGraphModel dx="2112" dy="866" grid="1" gridSize="10" guides="1" tooltips="1" connect="1" arrows="1" fold="1" page="1" pageScale="1" pageWidth="827" pageHeight="1169" math="0" shadow="0">
      <root>
        <mxCell id="0" />
        <mxCell id="1" parent="0" />
        <mxCell id="IgeLQids6hlCfI4V9-Eq-91" value="" style="rounded=1;whiteSpace=wrap;html=1;fillColor=#fff2cc;strokeColor=#d6b656;" parent="1" vertex="1">
          <mxGeometry x="180" y="190" width="1360" height="600" as="geometry" />
        </mxCell>
        <mxCell id="IgeLQids6hlCfI4V9-Eq-2" value="" style="rounded=1;whiteSpace=wrap;html=1;" parent="1" vertex="1">
          <mxGeometry x="210" y="220" width="330" height="230" as="geometry" />
        </mxCell>
        <mxCell id="IgeLQids6hlCfI4V9-Eq-3" value="&lt;b&gt;Форма регистрации&lt;/b&gt;" style="text;html=1;strokeColor=none;fillColor=none;align=center;verticalAlign=middle;whiteSpace=wrap;rounded=0;" parent="1" vertex="1">
          <mxGeometry x="305" y="220" width="140" height="30" as="geometry" />
        </mxCell>
        <mxCell id="IgeLQids6hlCfI4V9-Eq-5" value="Электронная почта" style="text;html=1;strokeColor=none;fillColor=none;align=center;verticalAlign=middle;whiteSpace=wrap;rounded=0;" parent="1" vertex="1">
          <mxGeometry x="230" y="250" width="110" height="30" as="geometry" />
        </mxCell>
        <mxCell id="IgeLQids6hlCfI4V9-Eq-6" value="&lt;font color=&quot;#999999&quot;&gt;Email&lt;/font&gt;" style="rounded=0;whiteSpace=wrap;html=1;" parent="1" vertex="1">
          <mxGeometry x="230" y="280" width="290" height="30" as="geometry" />
        </mxCell>
        <mxCell id="IgeLQids6hlCfI4V9-Eq-7" value="Пароль" style="text;html=1;strokeColor=none;fillColor=none;align=center;verticalAlign=middle;whiteSpace=wrap;rounded=0;" parent="1" vertex="1">
          <mxGeometry x="230" y="310" width="50" height="30" as="geometry" />
        </mxCell>
        <mxCell id="IgeLQids6hlCfI4V9-Eq-8" value="&lt;font color=&quot;#999999&quot;&gt;Password&lt;/font&gt;" style="rounded=0;whiteSpace=wrap;html=1;" parent="1" vertex="1">
          <mxGeometry x="230" y="340" width="290" height="30" as="geometry" />
        </mxCell>
        <mxCell id="IgeLQids6hlCfI4V9-Eq-9" value="Зарегистрироваться" style="rounded=0;whiteSpace=wrap;html=1;fillColor=#dae8fc;strokeColor=#6c8ebf;" parent="1" vertex="1">
          <mxGeometry x="230" y="380" width="150" height="30" as="geometry" />
        </mxCell>
        <mxCell id="IgeLQids6hlCfI4V9-Eq-10" value="&lt;font color=&quot;#ff0000&quot;&gt;Сообщение об ошибке&lt;/font&gt;" style="text;html=1;strokeColor=none;fillColor=none;align=center;verticalAlign=middle;whiteSpace=wrap;rounded=0;" parent="1" vertex="1">
          <mxGeometry x="230" y="420" width="130" height="30" as="geometry" />
        </mxCell>
        <mxCell id="IgeLQids6hlCfI4V9-Eq-11" value="" style="rounded=1;whiteSpace=wrap;html=1;" parent="1" vertex="1">
          <mxGeometry x="820" y="221.53" width="330" height="170" as="geometry" />
        </mxCell>
        <mxCell id="IgeLQids6hlCfI4V9-Eq-12" value="&lt;b&gt;Форма восстановления пароля&lt;/b&gt;" style="text;html=1;strokeColor=none;fillColor=none;align=center;verticalAlign=middle;whiteSpace=wrap;rounded=0;" parent="1" vertex="1">
          <mxGeometry x="890" y="221.53" width="190" height="30" as="geometry" />
        </mxCell>
        <mxCell id="IgeLQids6hlCfI4V9-Eq-13" value="Электронная почта" style="text;html=1;strokeColor=none;fillColor=none;align=center;verticalAlign=middle;whiteSpace=wrap;rounded=0;" parent="1" vertex="1">
          <mxGeometry x="840" y="251.53" width="110" height="30" as="geometry" />
        </mxCell>
        <mxCell id="IgeLQids6hlCfI4V9-Eq-14" value="&lt;font color=&quot;#999999&quot;&gt;Email&lt;/font&gt;" style="rounded=0;whiteSpace=wrap;html=1;" parent="1" vertex="1">
          <mxGeometry x="840" y="281.53" width="290" height="30" as="geometry" />
        </mxCell>
        <mxCell id="IgeLQids6hlCfI4V9-Eq-17" value="Восстановить пароль" style="rounded=0;whiteSpace=wrap;html=1;fillColor=#dae8fc;strokeColor=#6c8ebf;" parent="1" vertex="1">
          <mxGeometry x="840" y="321.53" width="150" height="30" as="geometry" />
        </mxCell>
        <mxCell id="IgeLQids6hlCfI4V9-Eq-18" value="&lt;font color=&quot;#ff0000&quot;&gt;Сообщение об ошибке&lt;/font&gt;" style="text;html=1;strokeColor=none;fillColor=none;align=center;verticalAlign=middle;whiteSpace=wrap;rounded=0;" parent="1" vertex="1">
          <mxGeometry x="840" y="361.53" width="130" height="30" as="geometry" />
        </mxCell>
        <mxCell id="IgeLQids6hlCfI4V9-Eq-19" value="" style="rounded=1;whiteSpace=wrap;html=1;" parent="1" vertex="1">
          <mxGeometry x="1170" y="400" width="330" height="170" as="geometry" />
        </mxCell>
        <mxCell id="IgeLQids6hlCfI4V9-Eq-20" value="&lt;b&gt;Информация&lt;/b&gt;" style="text;html=1;strokeColor=none;fillColor=none;align=center;verticalAlign=middle;whiteSpace=wrap;rounded=0;" parent="1" vertex="1">
          <mxGeometry x="1240" y="400" width="190" height="30" as="geometry" />
        </mxCell>
        <mxCell id="IgeLQids6hlCfI4V9-Eq-24" value="&lt;font color=&quot;#0000ff&quot;&gt;Переход на главную страницу&lt;/font&gt;" style="text;html=1;strokeColor=none;fillColor=none;align=center;verticalAlign=middle;whiteSpace=wrap;rounded=0;" parent="1" vertex="1">
          <mxGeometry x="1248" y="500" width="174" height="30" as="geometry" />
        </mxCell>
        <mxCell id="IgeLQids6hlCfI4V9-Eq-25" value="&lt;font style=&quot;font-size: 30px;&quot;&gt;&amp;lt;Сообщение&amp;gt;&lt;br&gt;&lt;/font&gt;" style="text;html=1;strokeColor=none;fillColor=none;align=center;verticalAlign=middle;whiteSpace=wrap;rounded=0;" parent="1" vertex="1">
          <mxGeometry x="1218" y="460" width="225" height="30" as="geometry" />
        </mxCell>
        <mxCell id="IgeLQids6hlCfI4V9-Eq-26" value="" style="rounded=1;whiteSpace=wrap;html=1;" parent="1" vertex="1">
          <mxGeometry x="820" y="590" width="330" height="170" as="geometry" />
        </mxCell>
        <mxCell id="IgeLQids6hlCfI4V9-Eq-27" value="&lt;b&gt;Форма ввода нового пароля&lt;/b&gt;" style="text;html=1;strokeColor=none;fillColor=none;align=center;verticalAlign=middle;whiteSpace=wrap;rounded=0;" parent="1" vertex="1">
          <mxGeometry x="890" y="590" width="190" height="30" as="geometry" />
        </mxCell>
        <mxCell id="IgeLQids6hlCfI4V9-Eq-28" value="Новый пароль" style="text;html=1;strokeColor=none;fillColor=none;align=center;verticalAlign=middle;whiteSpace=wrap;rounded=0;" parent="1" vertex="1">
          <mxGeometry x="840" y="620" width="90" height="30" as="geometry" />
        </mxCell>
        <mxCell id="IgeLQids6hlCfI4V9-Eq-29" value="&lt;font color=&quot;#999999&quot;&gt;Password&lt;/font&gt;" style="rounded=0;whiteSpace=wrap;html=1;" parent="1" vertex="1">
          <mxGeometry x="840" y="650" width="290" height="30" as="geometry" />
        </mxCell>
        <mxCell id="IgeLQids6hlCfI4V9-Eq-30" value="Изменить пароль" style="rounded=0;whiteSpace=wrap;html=1;fillColor=#dae8fc;strokeColor=#6c8ebf;" parent="1" vertex="1">
          <mxGeometry x="840" y="690" width="150" height="30" as="geometry" />
        </mxCell>
        <mxCell id="IgeLQids6hlCfI4V9-Eq-31" value="&lt;font color=&quot;#ff0000&quot;&gt;Сообщение об ошибке&lt;/font&gt;" style="text;html=1;strokeColor=none;fillColor=none;align=center;verticalAlign=middle;whiteSpace=wrap;rounded=0;" parent="1" vertex="1">
          <mxGeometry x="840" y="730" width="130" height="30" as="geometry" />
        </mxCell>
        <mxCell id="IgeLQids6hlCfI4V9-Eq-38" value="" style="rounded=1;whiteSpace=wrap;html=1;" parent="1" vertex="1">
          <mxGeometry x="210" y="520" width="330" height="230" as="geometry" />
        </mxCell>
        <mxCell id="IgeLQids6hlCfI4V9-Eq-39" value="&lt;b&gt;Форма входа&lt;/b&gt;" style="text;html=1;strokeColor=none;fillColor=none;align=center;verticalAlign=middle;whiteSpace=wrap;rounded=0;" parent="1" vertex="1">
          <mxGeometry x="327.5" y="520" width="95" height="30" as="geometry" />
        </mxCell>
        <mxCell id="IgeLQids6hlCfI4V9-Eq-40" value="Электронная почта" style="text;html=1;strokeColor=none;fillColor=none;align=center;verticalAlign=middle;whiteSpace=wrap;rounded=0;" parent="1" vertex="1">
          <mxGeometry x="230" y="550" width="110" height="30" as="geometry" />
        </mxCell>
        <mxCell id="IgeLQids6hlCfI4V9-Eq-41" value="&lt;font color=&quot;#999999&quot;&gt;Email&lt;/font&gt;" style="rounded=0;whiteSpace=wrap;html=1;" parent="1" vertex="1">
          <mxGeometry x="230" y="580" width="290" height="30" as="geometry" />
        </mxCell>
        <mxCell id="IgeLQids6hlCfI4V9-Eq-42" value="Пароль" style="text;html=1;strokeColor=none;fillColor=none;align=center;verticalAlign=middle;whiteSpace=wrap;rounded=0;" parent="1" vertex="1">
          <mxGeometry x="230" y="610" width="50" height="30" as="geometry" />
        </mxCell>
        <mxCell id="IgeLQids6hlCfI4V9-Eq-43" value="&lt;font color=&quot;#999999&quot;&gt;Password&lt;/font&gt;" style="rounded=0;whiteSpace=wrap;html=1;" parent="1" vertex="1">
          <mxGeometry x="230" y="640" width="290" height="30" as="geometry" />
        </mxCell>
        <mxCell id="IgeLQids6hlCfI4V9-Eq-44" value="Войти" style="rounded=0;whiteSpace=wrap;html=1;fillColor=#dae8fc;strokeColor=#6c8ebf;" parent="1" vertex="1">
          <mxGeometry x="230" y="680" width="150" height="30" as="geometry" />
        </mxCell>
        <mxCell id="IgeLQids6hlCfI4V9-Eq-45" value="&lt;font color=&quot;#ff0000&quot;&gt;Сообщение об ошибке&lt;/font&gt;" style="text;html=1;strokeColor=none;fillColor=none;align=center;verticalAlign=middle;whiteSpace=wrap;rounded=0;" parent="1" vertex="1">
          <mxGeometry x="230" y="720" width="130" height="30" as="geometry" />
        </mxCell>
        <mxCell id="IgeLQids6hlCfI4V9-Eq-46" value="" style="rhombus;whiteSpace=wrap;html=1;" parent="1" vertex="1">
          <mxGeometry x="760" y="330" width="30" height="10" as="geometry" />
        </mxCell>
        <mxCell id="IgeLQids6hlCfI4V9-Eq-47" value="" style="endArrow=classic;html=1;rounded=1;exitX=1;exitY=0.5;exitDx=0;exitDy=0;entryX=0;entryY=0.5;entryDx=0;entryDy=0;curved=0;" parent="1" source="IgeLQids6hlCfI4V9-Eq-2" target="IgeLQids6hlCfI4V9-Eq-46" edge="1">
          <mxGeometry width="50" height="50" relative="1" as="geometry">
            <mxPoint x="660" y="335" as="sourcePoint" />
            <mxPoint x="660" y="380" as="targetPoint" />
          </mxGeometry>
        </mxCell>
        <mxCell id="IgeLQids6hlCfI4V9-Eq-48" value="Нажали кнопку &quot;Зарегистрироваться&quot;" style="edgeLabel;html=1;align=center;verticalAlign=middle;resizable=0;points=[];" parent="IgeLQids6hlCfI4V9-Eq-47" vertex="1" connectable="0">
          <mxGeometry x="-0.0186" y="1" relative="1" as="geometry">
            <mxPoint y="-9" as="offset" />
          </mxGeometry>
        </mxCell>
        <mxCell id="IgeLQids6hlCfI4V9-Eq-50" value="" style="endArrow=classic;html=1;rounded=1;exitX=0.5;exitY=0;exitDx=0;exitDy=0;entryX=1;entryY=0.25;entryDx=0;entryDy=0;curved=0;" parent="1" source="IgeLQids6hlCfI4V9-Eq-46" target="IgeLQids6hlCfI4V9-Eq-2" edge="1">
          <mxGeometry width="50" height="50" relative="1" as="geometry">
            <mxPoint x="550" y="345" as="sourcePoint" />
            <mxPoint x="770" y="345" as="targetPoint" />
            <Array as="points">
              <mxPoint x="775" y="278" />
            </Array>
          </mxGeometry>
        </mxCell>
        <mxCell id="IgeLQids6hlCfI4V9-Eq-51" value="[ошибка]" style="edgeLabel;html=1;align=center;verticalAlign=middle;resizable=0;points=[];" parent="IgeLQids6hlCfI4V9-Eq-50" vertex="1" connectable="0">
          <mxGeometry x="-0.0186" y="1" relative="1" as="geometry">
            <mxPoint y="-9" as="offset" />
          </mxGeometry>
        </mxCell>
        <mxCell id="IgeLQids6hlCfI4V9-Eq-54" value="" style="endArrow=classic;html=1;rounded=1;curved=0;exitX=0.5;exitY=1;exitDx=0;exitDy=0;entryX=1;entryY=0.25;entryDx=0;entryDy=0;" parent="1" source="IgeLQids6hlCfI4V9-Eq-46" target="IgeLQids6hlCfI4V9-Eq-38" edge="1">
          <mxGeometry width="50" height="50" relative="1" as="geometry">
            <mxPoint x="580" y="470" as="sourcePoint" />
            <mxPoint x="780" y="410" as="targetPoint" />
            <Array as="points">
              <mxPoint x="775" y="580" />
            </Array>
          </mxGeometry>
        </mxCell>
        <mxCell id="IgeLQids6hlCfI4V9-Eq-55" value="[ok]" style="edgeLabel;html=1;align=center;verticalAlign=middle;resizable=0;points=[];" parent="IgeLQids6hlCfI4V9-Eq-54" vertex="1" connectable="0">
          <mxGeometry x="-0.0186" y="1" relative="1" as="geometry">
            <mxPoint x="-116" y="-3" as="offset" />
          </mxGeometry>
        </mxCell>
        <mxCell id="IgeLQids6hlCfI4V9-Eq-56" value="" style="rhombus;whiteSpace=wrap;html=1;" parent="1" vertex="1">
          <mxGeometry x="680" y="688" width="30" height="10" as="geometry" />
        </mxCell>
        <mxCell id="IgeLQids6hlCfI4V9-Eq-57" value="" style="endArrow=classic;html=1;rounded=1;exitX=1;exitY=0.75;exitDx=0;exitDy=0;entryX=0;entryY=0.5;entryDx=0;entryDy=0;curved=0;" parent="1" source="IgeLQids6hlCfI4V9-Eq-38" target="IgeLQids6hlCfI4V9-Eq-56" edge="1">
          <mxGeometry width="50" height="50" relative="1" as="geometry">
            <mxPoint x="540" y="685" as="sourcePoint" />
            <mxPoint x="660" y="730" as="targetPoint" />
          </mxGeometry>
        </mxCell>
        <mxCell id="IgeLQids6hlCfI4V9-Eq-58" value="Нажали кнопку &quot;Войти&quot;" style="edgeLabel;html=1;align=center;verticalAlign=middle;resizable=0;points=[];" parent="IgeLQids6hlCfI4V9-Eq-57" vertex="1" connectable="0">
          <mxGeometry x="-0.0186" y="1" relative="1" as="geometry">
            <mxPoint y="-9" as="offset" />
          </mxGeometry>
        </mxCell>
        <mxCell id="IgeLQids6hlCfI4V9-Eq-72" value="" style="rhombus;whiteSpace=wrap;html=1;" parent="1" vertex="1">
          <mxGeometry x="1370" y="301.53" width="30" height="10" as="geometry" />
        </mxCell>
        <mxCell id="IgeLQids6hlCfI4V9-Eq-73" value="" style="endArrow=classic;html=1;rounded=1;entryX=0;entryY=0.5;entryDx=0;entryDy=0;curved=0;exitX=1;exitY=0.5;exitDx=0;exitDy=0;" parent="1" source="IgeLQids6hlCfI4V9-Eq-11" target="IgeLQids6hlCfI4V9-Eq-72" edge="1">
          <mxGeometry width="50" height="50" relative="1" as="geometry">
            <mxPoint x="1150" y="302.53" as="sourcePoint" />
            <mxPoint x="1270" y="347.53" as="targetPoint" />
          </mxGeometry>
        </mxCell>
        <mxCell id="IgeLQids6hlCfI4V9-Eq-74" value="Нажали кнопку &quot;Восстановить пароль&quot;" style="edgeLabel;html=1;align=center;verticalAlign=middle;resizable=0;points=[];" parent="IgeLQids6hlCfI4V9-Eq-73" vertex="1" connectable="0">
          <mxGeometry x="-0.0186" y="1" relative="1" as="geometry">
            <mxPoint y="-9" as="offset" />
          </mxGeometry>
        </mxCell>
        <mxCell id="IgeLQids6hlCfI4V9-Eq-75" value="" style="endArrow=classic;html=1;rounded=1;exitX=0.5;exitY=0;exitDx=0;exitDy=0;entryX=1;entryY=0.25;entryDx=0;entryDy=0;curved=0;" parent="1" source="IgeLQids6hlCfI4V9-Eq-72" target="IgeLQids6hlCfI4V9-Eq-11" edge="1">
          <mxGeometry width="50" height="50" relative="1" as="geometry">
            <mxPoint x="1160" y="312.53" as="sourcePoint" />
            <mxPoint x="1150" y="245.53" as="targetPoint" />
            <Array as="points">
              <mxPoint x="1385" y="264.53" />
            </Array>
          </mxGeometry>
        </mxCell>
        <mxCell id="IgeLQids6hlCfI4V9-Eq-76" value="[ошибка]" style="edgeLabel;html=1;align=center;verticalAlign=middle;resizable=0;points=[];" parent="IgeLQids6hlCfI4V9-Eq-75" vertex="1" connectable="0">
          <mxGeometry x="-0.0186" y="1" relative="1" as="geometry">
            <mxPoint y="-9" as="offset" />
          </mxGeometry>
        </mxCell>
        <mxCell id="IgeLQids6hlCfI4V9-Eq-77" value="" style="endArrow=classic;html=1;rounded=1;exitX=0.5;exitY=0;exitDx=0;exitDy=0;entryX=1;entryY=0.5;entryDx=0;entryDy=0;curved=0;" parent="1" source="IgeLQids6hlCfI4V9-Eq-56" target="IgeLQids6hlCfI4V9-Eq-38" edge="1">
          <mxGeometry width="50" height="50" relative="1" as="geometry">
            <mxPoint x="785" y="340" as="sourcePoint" />
            <mxPoint x="550" y="288" as="targetPoint" />
            <Array as="points">
              <mxPoint x="695" y="635" />
            </Array>
          </mxGeometry>
        </mxCell>
        <mxCell id="IgeLQids6hlCfI4V9-Eq-78" value="[ошибка]" style="edgeLabel;html=1;align=center;verticalAlign=middle;resizable=0;points=[];" parent="IgeLQids6hlCfI4V9-Eq-77" vertex="1" connectable="0">
          <mxGeometry x="-0.0186" y="1" relative="1" as="geometry">
            <mxPoint y="-9" as="offset" />
          </mxGeometry>
        </mxCell>
        <mxCell id="IgeLQids6hlCfI4V9-Eq-79" value="" style="endArrow=classic;html=1;rounded=1;entryX=0.649;entryY=0.001;entryDx=0;entryDy=0;curved=0;exitX=0.5;exitY=1;exitDx=0;exitDy=0;entryPerimeter=0;" parent="1" source="IgeLQids6hlCfI4V9-Eq-72" target="IgeLQids6hlCfI4V9-Eq-19" edge="1">
          <mxGeometry width="50" height="50" relative="1" as="geometry">
            <mxPoint x="1160" y="316.53" as="sourcePoint" />
            <mxPoint x="1384.5" y="410" as="targetPoint" />
          </mxGeometry>
        </mxCell>
        <mxCell id="IgeLQids6hlCfI4V9-Eq-80" value="[ok]" style="edgeLabel;html=1;align=center;verticalAlign=middle;resizable=0;points=[];" parent="IgeLQids6hlCfI4V9-Eq-79" vertex="1" connectable="0">
          <mxGeometry x="-0.0186" y="1" relative="1" as="geometry">
            <mxPoint x="14" y="-24" as="offset" />
          </mxGeometry>
        </mxCell>
        <mxCell id="IgeLQids6hlCfI4V9-Eq-83" value="" style="rhombus;whiteSpace=wrap;html=1;" parent="1" vertex="1">
          <mxGeometry x="1340" y="670" width="30" height="10" as="geometry" />
        </mxCell>
        <mxCell id="IgeLQids6hlCfI4V9-Eq-84" value="" style="endArrow=classic;html=1;rounded=1;entryX=0;entryY=0.5;entryDx=0;entryDy=0;curved=0;exitX=1;exitY=0.5;exitDx=0;exitDy=0;" parent="1" source="IgeLQids6hlCfI4V9-Eq-26" target="IgeLQids6hlCfI4V9-Eq-83" edge="1">
          <mxGeometry width="50" height="50" relative="1" as="geometry">
            <mxPoint x="1150" y="675" as="sourcePoint" />
            <mxPoint x="1270" y="716" as="targetPoint" />
          </mxGeometry>
        </mxCell>
        <mxCell id="IgeLQids6hlCfI4V9-Eq-85" value="Нажали кнопку &quot;Изменить пароль&quot;" style="edgeLabel;html=1;align=center;verticalAlign=middle;resizable=0;points=[];" parent="IgeLQids6hlCfI4V9-Eq-84" vertex="1" connectable="0">
          <mxGeometry x="-0.0186" y="1" relative="1" as="geometry">
            <mxPoint y="-9" as="offset" />
          </mxGeometry>
        </mxCell>
        <mxCell id="IgeLQids6hlCfI4V9-Eq-87" value="" style="endArrow=classic;html=1;rounded=1;entryX=0.561;entryY=0.994;entryDx=0;entryDy=0;curved=0;exitX=0.5;exitY=0;exitDx=0;exitDy=0;entryPerimeter=0;" parent="1" source="IgeLQids6hlCfI4V9-Eq-83" target="IgeLQids6hlCfI4V9-Eq-19" edge="1">
          <mxGeometry width="50" height="50" relative="1" as="geometry">
            <mxPoint x="1395" y="310" as="sourcePoint" />
            <mxPoint x="1395" y="408" as="targetPoint" />
          </mxGeometry>
        </mxCell>
        <mxCell id="IgeLQids6hlCfI4V9-Eq-88" value="[ok]" style="edgeLabel;html=1;align=center;verticalAlign=middle;resizable=0;points=[];" parent="IgeLQids6hlCfI4V9-Eq-87" vertex="1" connectable="0">
          <mxGeometry x="-0.0186" y="1" relative="1" as="geometry">
            <mxPoint x="14" y="-24" as="offset" />
          </mxGeometry>
        </mxCell>
        <mxCell id="IgeLQids6hlCfI4V9-Eq-89" value="" style="endArrow=classic;html=1;rounded=1;exitX=0.5;exitY=1;exitDx=0;exitDy=0;entryX=1;entryY=0.707;entryDx=0;entryDy=0;curved=0;entryPerimeter=0;" parent="1" source="IgeLQids6hlCfI4V9-Eq-83" target="IgeLQids6hlCfI4V9-Eq-26" edge="1">
          <mxGeometry width="50" height="50" relative="1" as="geometry">
            <mxPoint x="1365" y="787" as="sourcePoint" />
            <mxPoint x="1130" y="750" as="targetPoint" />
            <Array as="points">
              <mxPoint x="1355" y="710" />
            </Array>
          </mxGeometry>
        </mxCell>
        <mxCell id="IgeLQids6hlCfI4V9-Eq-90" value="[ошибка]" style="edgeLabel;html=1;align=center;verticalAlign=middle;resizable=0;points=[];" parent="IgeLQids6hlCfI4V9-Eq-89" vertex="1" connectable="0">
          <mxGeometry x="-0.0186" y="1" relative="1" as="geometry">
            <mxPoint y="-9" as="offset" />
          </mxGeometry>
        </mxCell>
        <mxCell id="IgeLQids6hlCfI4V9-Eq-92" value="" style="rounded=0;whiteSpace=wrap;html=1;" parent="1" vertex="1">
          <mxGeometry x="760" y="880" width="370" height="190" as="geometry" />
        </mxCell>
        <mxCell id="IgeLQids6hlCfI4V9-Eq-94" value="&lt;font style=&quot;font-size: 30px;&quot;&gt;Личный кабинет&lt;br&gt;&lt;/font&gt;" style="text;html=1;strokeColor=none;fillColor=none;align=center;verticalAlign=middle;whiteSpace=wrap;rounded=0;" parent="1" vertex="1">
          <mxGeometry x="760" y="890" width="238" height="30" as="geometry" />
        </mxCell>
        <mxCell id="IgeLQids6hlCfI4V9-Eq-96" value="Выйти" style="rounded=0;whiteSpace=wrap;html=1;fillColor=#f8cecc;strokeColor=#b85450;" parent="1" vertex="1">
          <mxGeometry x="1060" y="890" width="60" height="30" as="geometry" />
        </mxCell>
        <mxCell id="IgeLQids6hlCfI4V9-Eq-97" value="" style="ellipse;whiteSpace=wrap;html=1;" parent="1" vertex="1">
          <mxGeometry x="170" y="320" width="20" height="20" as="geometry" />
        </mxCell>
        <mxCell id="IgeLQids6hlCfI4V9-Eq-98" value="" style="endArrow=classic;html=1;rounded=1;exitX=1;exitY=0.5;exitDx=0;exitDy=0;entryX=-0.006;entryY=0.476;entryDx=0;entryDy=0;curved=0;entryPerimeter=0;" parent="1" source="IgeLQids6hlCfI4V9-Eq-97" target="IgeLQids6hlCfI4V9-Eq-2" edge="1">
          <mxGeometry width="50" height="50" relative="1" as="geometry">
            <mxPoint x="550" y="703" as="sourcePoint" />
            <mxPoint x="690" y="703" as="targetPoint" />
          </mxGeometry>
        </mxCell>
        <mxCell id="IgeLQids6hlCfI4V9-Eq-100" value="" style="ellipse;whiteSpace=wrap;html=1;" parent="1" vertex="1">
          <mxGeometry x="170" y="625" width="20" height="20" as="geometry" />
        </mxCell>
        <mxCell id="IgeLQids6hlCfI4V9-Eq-101" value="" style="endArrow=classic;html=1;rounded=1;exitX=1;exitY=0.5;exitDx=0;exitDy=0;entryX=0;entryY=0.5;entryDx=0;entryDy=0;curved=0;" parent="1" source="IgeLQids6hlCfI4V9-Eq-100" target="IgeLQids6hlCfI4V9-Eq-38" edge="1">
          <mxGeometry width="50" height="50" relative="1" as="geometry">
            <mxPoint x="552" y="1013" as="sourcePoint" />
            <mxPoint x="210" y="639" as="targetPoint" />
          </mxGeometry>
        </mxCell>
        <mxCell id="IgeLQids6hlCfI4V9-Eq-102" value="" style="ellipse;whiteSpace=wrap;html=1;" parent="1" vertex="1">
          <mxGeometry x="975" y="780" width="20" height="20" as="geometry" />
        </mxCell>
        <mxCell id="IgeLQids6hlCfI4V9-Eq-103" value="" style="endArrow=classic;html=1;rounded=1;exitX=0.5;exitY=0;exitDx=0;exitDy=0;entryX=0.5;entryY=1;entryDx=0;entryDy=0;curved=0;" parent="1" source="IgeLQids6hlCfI4V9-Eq-102" target="IgeLQids6hlCfI4V9-Eq-26" edge="1">
          <mxGeometry width="50" height="50" relative="1" as="geometry">
            <mxPoint x="200" y="645" as="sourcePoint" />
            <mxPoint x="220" y="645" as="targetPoint" />
          </mxGeometry>
        </mxCell>
        <mxCell id="IgeLQids6hlCfI4V9-Eq-105" value="" style="ellipse;whiteSpace=wrap;html=1;" parent="1" vertex="1">
          <mxGeometry x="975" y="180" width="20" height="20" as="geometry" />
        </mxCell>
        <mxCell id="IgeLQids6hlCfI4V9-Eq-106" value="" style="endArrow=classic;html=1;rounded=1;exitX=0.5;exitY=1;exitDx=0;exitDy=0;curved=0;entryX=0.5;entryY=0;entryDx=0;entryDy=0;" parent="1" source="IgeLQids6hlCfI4V9-Eq-105" target="IgeLQids6hlCfI4V9-Eq-11" edge="1">
          <mxGeometry width="50" height="50" relative="1" as="geometry">
            <mxPoint x="995" y="790" as="sourcePoint" />
            <mxPoint x="995" y="770" as="targetPoint" />
          </mxGeometry>
        </mxCell>
        <mxCell id="IgeLQids6hlCfI4V9-Eq-107" value="" style="shape=sumEllipse;perimeter=ellipsePerimeter;html=1;backgroundOutline=1;" parent="1" vertex="1">
          <mxGeometry x="685" y="780" width="20" height="20" as="geometry" />
        </mxCell>
        <mxCell id="IgeLQids6hlCfI4V9-Eq-108" value="" style="endArrow=classic;html=1;rounded=1;entryX=0.5;entryY=0;entryDx=0;entryDy=0;curved=0;exitX=0.5;exitY=1;exitDx=0;exitDy=0;" parent="1" source="IgeLQids6hlCfI4V9-Eq-56" target="IgeLQids6hlCfI4V9-Eq-107" edge="1">
          <mxGeometry width="50" height="50" relative="1" as="geometry">
            <mxPoint x="1395" y="322" as="sourcePoint" />
            <mxPoint x="1394" y="410" as="targetPoint" />
          </mxGeometry>
        </mxCell>
        <mxCell id="IgeLQids6hlCfI4V9-Eq-109" value="[ok]" style="edgeLabel;html=1;align=center;verticalAlign=middle;resizable=0;points=[];" parent="IgeLQids6hlCfI4V9-Eq-108" vertex="1" connectable="0">
          <mxGeometry x="-0.0186" y="1" relative="1" as="geometry">
            <mxPoint x="14" y="-3" as="offset" />
          </mxGeometry>
        </mxCell>
        <mxCell id="IgeLQids6hlCfI4V9-Eq-110" value="" style="rhombus;whiteSpace=wrap;html=1;" parent="1" vertex="1">
          <mxGeometry x="680" y="922" width="30" height="10" as="geometry" />
        </mxCell>
        <mxCell id="IgeLQids6hlCfI4V9-Eq-111" value="" style="endArrow=classic;html=1;rounded=1;exitX=1;exitY=0.5;exitDx=0;exitDy=0;entryX=0;entryY=0.25;entryDx=0;entryDy=0;curved=0;jumpStyle=arc;" parent="1" source="IgeLQids6hlCfI4V9-Eq-110" target="IgeLQids6hlCfI4V9-Eq-92" edge="1">
          <mxGeometry width="50" height="50" relative="1" as="geometry">
            <mxPoint x="995" y="790" as="sourcePoint" />
            <mxPoint x="995" y="770" as="targetPoint" />
          </mxGeometry>
        </mxCell>
        <mxCell id="IgeLQids6hlCfI4V9-Eq-112" value="" style="endArrow=classic;html=1;rounded=1;exitX=0.5;exitY=1;exitDx=0;exitDy=0;entryX=0.5;entryY=0;entryDx=0;entryDy=0;curved=0;jumpStyle=arc;" parent="1" source="IgeLQids6hlCfI4V9-Eq-107" target="IgeLQids6hlCfI4V9-Eq-110" edge="1">
          <mxGeometry width="50" height="50" relative="1" as="geometry">
            <mxPoint x="705" y="910" as="sourcePoint" />
            <mxPoint x="705" y="980" as="targetPoint" />
          </mxGeometry>
        </mxCell>
        <mxCell id="IgeLQids6hlCfI4V9-Eq-113" value="" style="ellipse;fillColor=strokeColor;html=1;" parent="1" vertex="1">
          <mxGeometry x="-130" y="1010" width="30" height="30" as="geometry" />
        </mxCell>
        <mxCell id="IgeLQids6hlCfI4V9-Eq-114" value="" style="rhombus;whiteSpace=wrap;html=1;" parent="1" vertex="1">
          <mxGeometry x="-130" y="923" width="30" height="10" as="geometry" />
        </mxCell>
        <mxCell id="IgeLQids6hlCfI4V9-Eq-115" value="" style="endArrow=classic;html=1;rounded=1;entryX=0.5;entryY=1;entryDx=0;entryDy=0;curved=0;jumpStyle=arc;" parent="1" source="IgeLQids6hlCfI4V9-Eq-113" target="IgeLQids6hlCfI4V9-Eq-114" edge="1">
          <mxGeometry width="50" height="50" relative="1" as="geometry">
            <mxPoint x="705" y="910" as="sourcePoint" />
            <mxPoint x="705" y="980" as="targetPoint" />
          </mxGeometry>
        </mxCell>
        <mxCell id="IgeLQids6hlCfI4V9-Eq-116" value="" style="endArrow=classic;html=1;rounded=1;exitX=1;exitY=0.5;exitDx=0;exitDy=0;entryX=0;entryY=0.5;entryDx=0;entryDy=0;curved=0;jumpStyle=arc;" parent="1" source="IgeLQids6hlCfI4V9-Eq-114" target="IgeLQids6hlCfI4V9-Eq-110" edge="1">
          <mxGeometry width="50" height="50" relative="1" as="geometry">
            <mxPoint x="-150" y="905" as="sourcePoint" />
            <mxPoint x="-120" y="905" as="targetPoint" />
          </mxGeometry>
        </mxCell>
        <mxCell id="IgeLQids6hlCfI4V9-Eq-117" value="[роль = Пользователь]" style="edgeLabel;html=1;align=center;verticalAlign=middle;resizable=0;points=[];" parent="IgeLQids6hlCfI4V9-Eq-116" vertex="1" connectable="0">
          <mxGeometry x="-0.4404" y="3" relative="1" as="geometry">
            <mxPoint x="177" y="-12" as="offset" />
          </mxGeometry>
        </mxCell>
        <mxCell id="IgeLQids6hlCfI4V9-Eq-118" value="" style="rhombus;whiteSpace=wrap;html=1;" parent="1" vertex="1">
          <mxGeometry x="-130" y="830" width="30" height="10" as="geometry" />
        </mxCell>
        <mxCell id="IgeLQids6hlCfI4V9-Eq-119" value="" style="endArrow=classic;html=1;rounded=1;exitX=0.5;exitY=0;exitDx=0;exitDy=0;entryX=0.5;entryY=1;entryDx=0;entryDy=0;curved=0;jumpStyle=arc;" parent="1" source="IgeLQids6hlCfI4V9-Eq-114" target="IgeLQids6hlCfI4V9-Eq-118" edge="1">
          <mxGeometry width="50" height="50" relative="1" as="geometry">
            <mxPoint x="-150" y="905" as="sourcePoint" />
            <mxPoint x="-120" y="905" as="targetPoint" />
          </mxGeometry>
        </mxCell>
        <mxCell id="IgeLQids6hlCfI4V9-Eq-120" value="[else]" style="edgeLabel;html=1;align=center;verticalAlign=middle;resizable=0;points=[];" parent="IgeLQids6hlCfI4V9-Eq-119" vertex="1" connectable="0">
          <mxGeometry x="0.0516" y="1" relative="1" as="geometry">
            <mxPoint x="16" as="offset" />
          </mxGeometry>
        </mxCell>
        <mxCell id="IgeLQids6hlCfI4V9-Eq-121" value="" style="endArrow=classic;html=1;rounded=1;exitX=1;exitY=0.5;exitDx=0;exitDy=0;curved=0;jumpStyle=arc;" parent="1" source="IgeLQids6hlCfI4V9-Eq-118" target="Hw_Np0mPRpR-K1o3CZ9B-1" edge="1">
          <mxGeometry width="50" height="50" relative="1" as="geometry">
            <mxPoint x="-200" y="832.5" as="sourcePoint" />
            <mxPoint x="910" y="832.5" as="targetPoint" />
            <Array as="points">
              <mxPoint x="885" y="837.5" />
            </Array>
          </mxGeometry>
        </mxCell>
        <mxCell id="IgeLQids6hlCfI4V9-Eq-122" value="[ссылка на страницу ввода нового пароля]" style="edgeLabel;html=1;align=center;verticalAlign=middle;resizable=0;points=[];" parent="IgeLQids6hlCfI4V9-Eq-121" vertex="1" connectable="0">
          <mxGeometry x="-0.4404" y="3" relative="1" as="geometry">
            <mxPoint x="135" y="-12" as="offset" />
          </mxGeometry>
        </mxCell>
        <mxCell id="IgeLQids6hlCfI4V9-Eq-123" value="" style="rhombus;whiteSpace=wrap;html=1;" parent="1" vertex="1">
          <mxGeometry x="-130" y="630" width="30" height="10" as="geometry" />
        </mxCell>
        <mxCell id="IgeLQids6hlCfI4V9-Eq-124" value="" style="endArrow=classic;html=1;rounded=1;exitX=0.5;exitY=0;exitDx=0;exitDy=0;entryX=0.5;entryY=1;entryDx=0;entryDy=0;curved=0;jumpStyle=arc;" parent="1" source="IgeLQids6hlCfI4V9-Eq-118" target="IgeLQids6hlCfI4V9-Eq-123" edge="1">
          <mxGeometry width="50" height="50" relative="1" as="geometry">
            <mxPoint x="-115" y="820" as="sourcePoint" />
            <mxPoint x="-120" y="835" as="targetPoint" />
          </mxGeometry>
        </mxCell>
        <mxCell id="IgeLQids6hlCfI4V9-Eq-125" value="[else]" style="edgeLabel;html=1;align=center;verticalAlign=middle;resizable=0;points=[];" parent="IgeLQids6hlCfI4V9-Eq-124" vertex="1" connectable="0">
          <mxGeometry x="0.0516" y="1" relative="1" as="geometry">
            <mxPoint x="16" as="offset" />
          </mxGeometry>
        </mxCell>
        <mxCell id="IgeLQids6hlCfI4V9-Eq-126" value="" style="endArrow=classic;html=1;rounded=1;exitX=1;exitY=0.5;exitDx=0;exitDy=0;entryX=0;entryY=0.5;entryDx=0;entryDy=0;curved=0;jumpStyle=arc;" parent="1" source="IgeLQids6hlCfI4V9-Eq-123" target="IgeLQids6hlCfI4V9-Eq-129" edge="1">
          <mxGeometry width="50" height="50" relative="1" as="geometry">
            <mxPoint x="-105" y="840" as="sourcePoint" />
            <mxPoint x="-105" y="780" as="targetPoint" />
          </mxGeometry>
        </mxCell>
        <mxCell id="IgeLQids6hlCfI4V9-Eq-127" value="[ссылка на страницу входа]" style="edgeLabel;html=1;align=center;verticalAlign=middle;resizable=0;points=[];" parent="IgeLQids6hlCfI4V9-Eq-126" vertex="1" connectable="0">
          <mxGeometry x="0.0516" y="1" relative="1" as="geometry">
            <mxPoint x="-9" y="-9" as="offset" />
          </mxGeometry>
        </mxCell>
        <mxCell id="IgeLQids6hlCfI4V9-Eq-129" value="" style="rhombus;whiteSpace=wrap;html=1;" parent="1" vertex="1">
          <mxGeometry x="50" y="630" width="30" height="10" as="geometry" />
        </mxCell>
        <mxCell id="IgeLQids6hlCfI4V9-Eq-131" value="" style="endArrow=classic;html=1;rounded=1;exitX=1;exitY=0.5;exitDx=0;exitDy=0;entryX=0;entryY=0.5;entryDx=0;entryDy=0;curved=0;jumpStyle=arc;" parent="1" source="IgeLQids6hlCfI4V9-Eq-129" target="IgeLQids6hlCfI4V9-Eq-100" edge="1">
          <mxGeometry width="50" height="50" relative="1" as="geometry">
            <mxPoint x="705" y="910" as="sourcePoint" />
            <mxPoint x="705" y="980" as="targetPoint" />
          </mxGeometry>
        </mxCell>
        <mxCell id="IgeLQids6hlCfI4V9-Eq-132" value="" style="endArrow=classic;html=1;rounded=1;exitX=0;exitY=0.617;exitDx=0;exitDy=0;entryX=0.5;entryY=0;entryDx=0;entryDy=0;curved=0;jumpStyle=arc;exitPerimeter=0;" parent="1" source="IgeLQids6hlCfI4V9-Eq-91" target="IgeLQids6hlCfI4V9-Eq-129" edge="1">
          <mxGeometry width="50" height="50" relative="1" as="geometry">
            <mxPoint x="90" y="645" as="sourcePoint" />
            <mxPoint x="180" y="645" as="targetPoint" />
            <Array as="points">
              <mxPoint x="65" y="560" />
            </Array>
          </mxGeometry>
        </mxCell>
        <mxCell id="IgeLQids6hlCfI4V9-Eq-133" value="Переход на главную страницу" style="edgeLabel;html=1;align=center;verticalAlign=middle;resizable=0;points=[];" parent="IgeLQids6hlCfI4V9-Eq-132" vertex="1" connectable="0">
          <mxGeometry x="-0.0463" y="-1" relative="1" as="geometry">
            <mxPoint x="8" y="-9" as="offset" />
          </mxGeometry>
        </mxCell>
        <mxCell id="IgeLQids6hlCfI4V9-Eq-134" value="" style="endArrow=classic;html=1;rounded=1;exitX=0;exitY=0.5;exitDx=0;exitDy=0;entryX=0.5;entryY=1;entryDx=0;entryDy=0;curved=0;jumpStyle=arc;" parent="1" source="IgeLQids6hlCfI4V9-Eq-92" target="IgeLQids6hlCfI4V9-Eq-129" edge="1">
          <mxGeometry width="50" height="50" relative="1" as="geometry">
            <mxPoint x="190" y="570" as="sourcePoint" />
            <mxPoint x="75" y="640" as="targetPoint" />
            <Array as="points">
              <mxPoint x="65" y="975" />
            </Array>
          </mxGeometry>
        </mxCell>
        <mxCell id="IgeLQids6hlCfI4V9-Eq-135" value="Нажали кнопку &quot;Выйти&quot;" style="edgeLabel;html=1;align=center;verticalAlign=middle;resizable=0;points=[];" parent="IgeLQids6hlCfI4V9-Eq-134" vertex="1" connectable="0">
          <mxGeometry x="-0.0463" y="-1" relative="1" as="geometry">
            <mxPoint x="343" y="-9" as="offset" />
          </mxGeometry>
        </mxCell>
        <mxCell id="IgeLQids6hlCfI4V9-Eq-136" value="" style="rhombus;whiteSpace=wrap;html=1;" parent="1" vertex="1">
          <mxGeometry x="90" y="325" width="30" height="10" as="geometry" />
        </mxCell>
        <mxCell id="IgeLQids6hlCfI4V9-Eq-137" value="" style="endArrow=classic;html=1;rounded=1;exitX=1;exitY=0.5;exitDx=0;exitDy=0;entryX=0;entryY=0.5;entryDx=0;entryDy=0;curved=0;jumpStyle=arc;" parent="1" source="IgeLQids6hlCfI4V9-Eq-136" edge="1">
          <mxGeometry width="50" height="50" relative="1" as="geometry">
            <mxPoint x="705" y="605" as="sourcePoint" />
            <mxPoint x="170" y="330" as="targetPoint" />
          </mxGeometry>
        </mxCell>
        <mxCell id="IgeLQids6hlCfI4V9-Eq-138" value="" style="endArrow=classic;html=1;rounded=1;exitX=-0.002;exitY=0.142;exitDx=0;exitDy=0;entryX=0.5;entryY=0;entryDx=0;entryDy=0;curved=0;jumpStyle=arc;exitPerimeter=0;" parent="1" source="IgeLQids6hlCfI4V9-Eq-91" target="IgeLQids6hlCfI4V9-Eq-136" edge="1">
          <mxGeometry width="50" height="50" relative="1" as="geometry">
            <mxPoint x="180" y="255" as="sourcePoint" />
            <mxPoint x="180" y="340" as="targetPoint" />
            <Array as="points">
              <mxPoint x="105" y="275" />
            </Array>
          </mxGeometry>
        </mxCell>
        <mxCell id="IgeLQids6hlCfI4V9-Eq-139" value="Переход на страницу регистрации" style="edgeLabel;html=1;align=center;verticalAlign=middle;resizable=0;points=[];" parent="IgeLQids6hlCfI4V9-Eq-138" vertex="1" connectable="0">
          <mxGeometry x="-0.0463" y="-1" relative="1" as="geometry">
            <mxPoint x="-39" y="-9" as="offset" />
          </mxGeometry>
        </mxCell>
        <mxCell id="IgeLQids6hlCfI4V9-Eq-140" value="" style="rhombus;whiteSpace=wrap;html=1;" parent="1" vertex="1">
          <mxGeometry x="-130" y="325" width="30" height="10" as="geometry" />
        </mxCell>
        <mxCell id="IgeLQids6hlCfI4V9-Eq-141" value="" style="endArrow=classic;html=1;rounded=1;exitX=0.5;exitY=0;exitDx=0;exitDy=0;entryX=0.5;entryY=1;entryDx=0;entryDy=0;curved=0;jumpStyle=arc;" parent="1" source="IgeLQids6hlCfI4V9-Eq-123" target="IgeLQids6hlCfI4V9-Eq-140" edge="1">
          <mxGeometry width="50" height="50" relative="1" as="geometry">
            <mxPoint x="-115" y="580" as="sourcePoint" />
            <mxPoint x="-120" y="585" as="targetPoint" />
          </mxGeometry>
        </mxCell>
        <mxCell id="IgeLQids6hlCfI4V9-Eq-142" value="[else]" style="edgeLabel;html=1;align=center;verticalAlign=middle;resizable=0;points=[];" parent="IgeLQids6hlCfI4V9-Eq-141" vertex="1" connectable="0">
          <mxGeometry x="0.0516" y="1" relative="1" as="geometry">
            <mxPoint x="16" as="offset" />
          </mxGeometry>
        </mxCell>
        <mxCell id="IgeLQids6hlCfI4V9-Eq-143" value="" style="endArrow=classic;html=1;rounded=1;exitX=1;exitY=0.5;exitDx=0;exitDy=0;entryX=0;entryY=0.5;entryDx=0;entryDy=0;curved=0;jumpStyle=arc;" parent="1" source="IgeLQids6hlCfI4V9-Eq-140" target="IgeLQids6hlCfI4V9-Eq-136" edge="1">
          <mxGeometry width="50" height="50" relative="1" as="geometry">
            <mxPoint x="-90" y="645" as="sourcePoint" />
            <mxPoint x="60" y="645" as="targetPoint" />
          </mxGeometry>
        </mxCell>
        <mxCell id="IgeLQids6hlCfI4V9-Eq-144" value="[ссылка на страницу регистрации]" style="edgeLabel;html=1;align=center;verticalAlign=middle;resizable=0;points=[];" parent="IgeLQids6hlCfI4V9-Eq-143" vertex="1" connectable="0">
          <mxGeometry x="0.0516" y="1" relative="1" as="geometry">
            <mxPoint x="-9" y="-9" as="offset" />
          </mxGeometry>
        </mxCell>
        <mxCell id="IgeLQids6hlCfI4V9-Eq-145" value="" style="rhombus;whiteSpace=wrap;html=1;" parent="1" vertex="1">
          <mxGeometry x="-130" y="139.99999999999997" width="30" height="10" as="geometry" />
        </mxCell>
        <mxCell id="IgeLQids6hlCfI4V9-Eq-146" value="" style="endArrow=classic;html=1;rounded=1;exitX=0.5;exitY=0;exitDx=0;exitDy=0;entryX=0.5;entryY=1;entryDx=0;entryDy=0;curved=0;jumpStyle=arc;" parent="1" source="IgeLQids6hlCfI4V9-Eq-140" target="IgeLQids6hlCfI4V9-Eq-145" edge="1">
          <mxGeometry width="50" height="50" relative="1" as="geometry">
            <mxPoint x="-115" y="301.53" as="sourcePoint" />
            <mxPoint x="-120" y="306.53" as="targetPoint" />
          </mxGeometry>
        </mxCell>
        <mxCell id="IgeLQids6hlCfI4V9-Eq-147" value="[else]" style="edgeLabel;html=1;align=center;verticalAlign=middle;resizable=0;points=[];" parent="IgeLQids6hlCfI4V9-Eq-146" vertex="1" connectable="0">
          <mxGeometry x="0.0516" y="1" relative="1" as="geometry">
            <mxPoint x="16" as="offset" />
          </mxGeometry>
        </mxCell>
        <mxCell id="IgeLQids6hlCfI4V9-Eq-148" value="" style="endArrow=classic;html=1;rounded=1;exitX=0.25;exitY=0;exitDx=0;exitDy=0;curved=0;jumpStyle=arc;entryX=0.5;entryY=1;entryDx=0;entryDy=0;" parent="1" source="IgeLQids6hlCfI4V9-Eq-91" target="IgeLQids6hlCfI4V9-Eq-151" edge="1">
          <mxGeometry width="50" height="50" relative="1" as="geometry">
            <mxPoint x="705" y="311.53" as="sourcePoint" />
            <mxPoint x="860" y="120" as="targetPoint" />
          </mxGeometry>
        </mxCell>
        <mxCell id="IgeLQids6hlCfI4V9-Eq-149" value="Переход на страницу восстановления пароля" style="edgeLabel;html=1;align=center;verticalAlign=middle;resizable=0;points=[];" parent="IgeLQids6hlCfI4V9-Eq-148" vertex="1" connectable="0">
          <mxGeometry x="0.0516" y="1" relative="1" as="geometry">
            <mxPoint x="-129" as="offset" />
          </mxGeometry>
        </mxCell>
        <mxCell id="IgeLQids6hlCfI4V9-Eq-151" value="" style="rhombus;whiteSpace=wrap;html=1;" parent="1" vertex="1">
          <mxGeometry x="505" y="139.99999999999997" width="30" height="10" as="geometry" />
        </mxCell>
        <mxCell id="IgeLQids6hlCfI4V9-Eq-152" value="" style="endArrow=classic;html=1;rounded=1;exitX=1;exitY=0.5;exitDx=0;exitDy=0;curved=0;jumpStyle=arc;entryX=0;entryY=0.5;entryDx=0;entryDy=0;" parent="1" source="IgeLQids6hlCfI4V9-Eq-145" target="IgeLQids6hlCfI4V9-Eq-151" edge="1">
          <mxGeometry width="50" height="50" relative="1" as="geometry">
            <mxPoint x="130" y="340" as="sourcePoint" />
            <mxPoint x="360" y="110" as="targetPoint" />
          </mxGeometry>
        </mxCell>
        <mxCell id="IgeLQids6hlCfI4V9-Eq-157" value="[ссылка на страницу восстановления пароля]" style="edgeLabel;html=1;align=center;verticalAlign=middle;resizable=0;points=[];" parent="IgeLQids6hlCfI4V9-Eq-152" vertex="1" connectable="0">
          <mxGeometry x="-0.6346" y="1" relative="1" as="geometry">
            <mxPoint x="119" y="-14" as="offset" />
          </mxGeometry>
        </mxCell>
        <mxCell id="IgeLQids6hlCfI4V9-Eq-153" value="" style="endArrow=classic;html=1;rounded=1;exitX=1;exitY=0.5;exitDx=0;exitDy=0;curved=0;jumpStyle=arc;entryX=0.5;entryY=0;entryDx=0;entryDy=0;" parent="1" source="IgeLQids6hlCfI4V9-Eq-151" target="IgeLQids6hlCfI4V9-Eq-105" edge="1">
          <mxGeometry width="50" height="50" relative="1" as="geometry">
            <mxPoint x="-90" y="155" as="sourcePoint" />
            <mxPoint x="515" y="155" as="targetPoint" />
            <Array as="points">
              <mxPoint x="985" y="145" />
            </Array>
          </mxGeometry>
        </mxCell>
        <mxCell id="IgeLQids6hlCfI4V9-Eq-154" value="404" style="rounded=1;whiteSpace=wrap;html=1;fillColor=#ffcc99;strokeColor=#36393d;" parent="1" vertex="1">
          <mxGeometry x="-140" y="40" width="50" height="35" as="geometry" />
        </mxCell>
        <mxCell id="IgeLQids6hlCfI4V9-Eq-155" value="" style="endArrow=classic;html=1;rounded=1;exitX=0.5;exitY=0;exitDx=0;exitDy=0;entryX=0.5;entryY=1;entryDx=0;entryDy=0;curved=0;jumpStyle=arc;" parent="1" source="IgeLQids6hlCfI4V9-Eq-145" target="IgeLQids6hlCfI4V9-Eq-154" edge="1">
          <mxGeometry width="50" height="50" relative="1" as="geometry">
            <mxPoint x="-105" y="335" as="sourcePoint" />
            <mxPoint x="-105" y="160" as="targetPoint" />
          </mxGeometry>
        </mxCell>
        <mxCell id="IgeLQids6hlCfI4V9-Eq-156" value="[else]" style="edgeLabel;html=1;align=center;verticalAlign=middle;resizable=0;points=[];" parent="IgeLQids6hlCfI4V9-Eq-155" vertex="1" connectable="0">
          <mxGeometry x="0.0516" y="1" relative="1" as="geometry">
            <mxPoint x="16" y="-6" as="offset" />
          </mxGeometry>
        </mxCell>
        <mxCell id="IgeLQids6hlCfI4V9-Eq-158" value="&quot;Ваш пароль изменён&quot;" style="shape=note2;boundedLbl=1;whiteSpace=wrap;html=1;size=25;verticalAlign=top;align=center;fillColor=#d5e8d4;gradientColor=#97d077;strokeColor=#82b366;" parent="1" vertex="1">
          <mxGeometry x="990" y="505" width="120" height="60" as="geometry" />
        </mxCell>
        <mxCell id="IgeLQids6hlCfI4V9-Eq-159" value="&quot;Ваш пароль изменён&quot;" style="shape=note2;boundedLbl=1;whiteSpace=wrap;html=1;size=25;verticalAlign=top;align=center;fillColor=#d5e8d4;gradientColor=#97d077;strokeColor=#82b366;" parent="1" vertex="1">
          <mxGeometry x="1560" y="300" width="120" height="60" as="geometry" />
        </mxCell>
        <mxCell id="IgeLQids6hlCfI4V9-Eq-160" value="" style="endArrow=none;dashed=1;html=1;rounded=0;entryX=1;entryY=1;entryDx=0;entryDy=0;entryPerimeter=0;" parent="1" target="IgeLQids6hlCfI4V9-Eq-158" edge="1">
          <mxGeometry width="50" height="50" relative="1" as="geometry">
            <mxPoint x="1360" y="600" as="sourcePoint" />
            <mxPoint x="1400" y="470" as="targetPoint" />
          </mxGeometry>
        </mxCell>
        <mxCell id="IgeLQids6hlCfI4V9-Eq-161" value="" style="endArrow=none;dashed=1;html=1;rounded=0;entryX=0;entryY=0.5;entryDx=0;entryDy=0;entryPerimeter=0;" parent="1" target="IgeLQids6hlCfI4V9-Eq-159" edge="1">
          <mxGeometry width="50" height="50" relative="1" as="geometry">
            <mxPoint x="1410" y="330" as="sourcePoint" />
            <mxPoint x="1570" y="595" as="targetPoint" />
          </mxGeometry>
        </mxCell>
        <mxCell id="IgeLQids6hlCfI4V9-Eq-162" value="&lt;font color=&quot;#0000ff&quot;&gt;Восстановить пароль&lt;/font&gt;" style="text;html=1;strokeColor=none;fillColor=none;align=center;verticalAlign=middle;whiteSpace=wrap;rounded=0;" parent="1" vertex="1">
          <mxGeometry x="396" y="680" width="124" height="30" as="geometry" />
        </mxCell>
        <mxCell id="Hw_Np0mPRpR-K1o3CZ9B-1" value="" style="rhombus;whiteSpace=wrap;html=1;" vertex="1" parent="1">
          <mxGeometry x="970" y="833" width="30" height="10" as="geometry" />
        </mxCell>
        <mxCell id="Hw_Np0mPRpR-K1o3CZ9B-4" value="" style="endArrow=classic;html=1;rounded=1;exitX=0.5;exitY=0;exitDx=0;exitDy=0;entryX=0.5;entryY=1;entryDx=0;entryDy=0;curved=0;jumpStyle=arc;" edge="1" parent="1" source="Hw_Np0mPRpR-K1o3CZ9B-1" target="IgeLQids6hlCfI4V9-Eq-102">
          <mxGeometry width="50" height="50" relative="1" as="geometry">
            <mxPoint x="705" y="810" as="sourcePoint" />
            <mxPoint x="705" y="900" as="targetPoint" />
          </mxGeometry>
        </mxCell>
        <mxCell id="Hw_Np0mPRpR-K1o3CZ9B-5" value="[токен восстановления корректен]" style="edgeLabel;html=1;align=center;verticalAlign=middle;resizable=0;points=[];" vertex="1" connectable="0" parent="Hw_Np0mPRpR-K1o3CZ9B-4">
          <mxGeometry x="-0.1255" y="-1" relative="1" as="geometry">
            <mxPoint x="94" as="offset" />
          </mxGeometry>
        </mxCell>
        <mxCell id="Hw_Np0mPRpR-K1o3CZ9B-6" value="" style="endArrow=classic;html=1;rounded=1;exitX=1;exitY=0.5;exitDx=0;exitDy=0;curved=0;jumpStyle=arc;entryX=0.5;entryY=1;entryDx=0;entryDy=0;" edge="1" parent="1" source="Hw_Np0mPRpR-K1o3CZ9B-1" target="Hw_Np0mPRpR-K1o3CZ9B-8">
          <mxGeometry width="50" height="50" relative="1" as="geometry">
            <mxPoint x="995" y="843" as="sourcePoint" />
            <mxPoint x="1410" y="800" as="targetPoint" />
            <Array as="points">
              <mxPoint x="1420" y="838" />
            </Array>
          </mxGeometry>
        </mxCell>
        <mxCell id="Hw_Np0mPRpR-K1o3CZ9B-7" value="[else]" style="edgeLabel;html=1;align=center;verticalAlign=middle;resizable=0;points=[];" vertex="1" connectable="0" parent="Hw_Np0mPRpR-K1o3CZ9B-6">
          <mxGeometry x="-0.1255" y="-1" relative="1" as="geometry">
            <mxPoint x="70" y="-9" as="offset" />
          </mxGeometry>
        </mxCell>
        <mxCell id="Hw_Np0mPRpR-K1o3CZ9B-8" value="" style="ellipse;whiteSpace=wrap;html=1;" vertex="1" parent="1">
          <mxGeometry x="1410" y="780" width="20" height="20" as="geometry" />
        </mxCell>
        <mxCell id="Hw_Np0mPRpR-K1o3CZ9B-9" value="" style="endArrow=classic;html=1;rounded=1;exitX=0.5;exitY=0;exitDx=0;exitDy=0;entryX=0.75;entryY=1;entryDx=0;entryDy=0;curved=0;" edge="1" parent="1" source="Hw_Np0mPRpR-K1o3CZ9B-8" target="IgeLQids6hlCfI4V9-Eq-19">
          <mxGeometry width="50" height="50" relative="1" as="geometry">
            <mxPoint x="995" y="790" as="sourcePoint" />
            <mxPoint x="995" y="770" as="targetPoint" />
          </mxGeometry>
        </mxCell>
        <mxCell id="Hw_Np0mPRpR-K1o3CZ9B-10" value="&quot;Восстановление пароля невозможно&quot;" style="shape=note2;boundedLbl=1;whiteSpace=wrap;html=1;size=25;verticalAlign=top;align=center;fillColor=#d5e8d4;gradientColor=#97d077;strokeColor=#82b366;" vertex="1" parent="1">
          <mxGeometry x="1560" y="605" width="120" height="60" as="geometry" />
        </mxCell>
        <mxCell id="Hw_Np0mPRpR-K1o3CZ9B-11" value="" style="endArrow=none;dashed=1;html=1;rounded=0;exitX=0;exitY=0.5;exitDx=0;exitDy=0;exitPerimeter=0;" edge="1" parent="1" source="Hw_Np0mPRpR-K1o3CZ9B-10">
          <mxGeometry width="50" height="50" relative="1" as="geometry">
            <mxPoint x="1370" y="610" as="sourcePoint" />
            <mxPoint x="1420" y="635" as="targetPoint" />
          </mxGeometry>
        </mxCell>
      </root>
    </mxGraphModel>
  </diagram>
</mxfile>
